<svg xmlns="http://www.w3.org/2000/svg" width="512" height="512" viewBox="0 0 512 512">
  <defs>
    <linearGradient id="brand" x1="0" y1="0" x2="1" y2="1">
      <stop offset="0%" stop-color="#34D399"/>
      <stop offset="48%" stop-color="#0D9488"/>
      <stop offset="100%" stop-color="#D97706"/>
    </linearGradient>
    <radialGradient id="sheen" cx="0.28" cy="0.2" r="0.85">
      <stop offset="0%" stop-color="#ffffff" stop-opacity="0.26"/>
      <stop offset="60%" stop-color="#ffffff" stop-opacity="0"/>
    </radialGradient>
  </defs>
  <rect x="0" y="0" width="512" height="512" rx="112.64" ry="112.64" fill="url(#brand)"/>
  <rect x="0" y="0" width="512" height="512" rx="112.64" ry="112.64" fill="url(#sheen)"/>
  <g transform="translate(56.58947368421053 56.58947368421053) scale(16.61754385964912)"><path d="M12 0.6 15.25 8.75 12 12Z M22.4 12 15.25 15.25 12 12Z M12 23.4 8.75 15.25 12 12Z M1.6 12 8.75 8.75 12 12Z" fill="#FFFFFF" stroke="#FFFFFF" stroke-width="0.45" stroke-linejoin="round"/><path d="M12 0.6 8.75 8.75 12 12Z M22.4 12 15.25 8.75 12 12Z M12 23.4 15.25 15.25 12 12Z M1.6 12 8.75 15.25 12 12Z" fill="#0B1220" stroke="#0B1220" stroke-width="0.45" stroke-linejoin="round" opacity="1"/></g>
</svg>